<?xml version="1.0" encoding="UTF-8"?><svg id="Ebene_1" xmlns="http://www.w3.org/2000/svg" viewBox="0 0 53.79 51.45"><defs><style>.cls-1{fill:#6bff6b;}</style></defs><path class="cls-1" d="M26.9.12C12.76.12,1.29,11.59,1.29,25.73s11.46,25.6,25.6,25.6,25.6-11.46,25.6-25.6S41.03.12,26.9.12ZM28.88,44.69c-1.2,1.24-2.26,2.18-3.18,2.82-.92-.6-1.98-1.53-3.18-2.79-1.2-1.26-2.04-2.33-2.52-3.21.52-.84,1.33-1.74,2.43-2.7,1.1-.96,2.19-1.68,3.27-2.16.96.52,2,1.25,3.12,2.19s1.96,1.83,2.52,2.67c-.44.88-1.26,1.94-2.46,3.18ZM28.28,23.09c-.72,4.4-1.16,7.26-1.32,8.58l-2.88.3-1.32-7.8v-1.14c3.48-2.88,5.22-6.52,5.22-10.92,0-2.48-1.16-3.72-3.48-3.72-.84,0-1.68.16-2.52.48-.32.88-.48,1.87-.48,2.97s.22,1.85.66,2.25l-.06.42c-2.12.76-3.88,1.76-5.28,3-1.04-.08-1.56-.66-1.56-1.74,0-2.44,1.25-4.87,3.75-7.29,2.5-2.42,5.09-3.93,7.77-4.53,3.44,0,6.26.82,8.46,2.46,2.2,1.64,3.3,4,3.3,7.08-2.2,2.96-5.62,6.16-10.26,9.6Z"/></svg>