<?xml version="1.0" encoding="UTF-8"?><svg id="Ebene_1" xmlns="http://www.w3.org/2000/svg" viewBox="0 0 53.79 51.45"><defs><style>.cls-1{fill:#6bff6b;}.cls-2{opacity:.5;}</style></defs><g id="vDtdfZ" class="cls-2"><path class="cls-1" d="M29.96,15.12l2.58-4.08c.07-.44-.06-.92-.38-1.24-.24-.23-2.87-1.92-3.15-2-.4-.12-.77-.07-1.13.13-1.19,1.4-2.11,3.05-3.14,4.57l5.23,2.62h-.01ZM23.26,22.86c-1.78-.15-3.76.15-5.53-.01s-1.68-2.41-.26-2.58c2.53-.3,5.66.24,8.24,0,.36-.03.77-.17,1.03-.43.17-.17.9-1.26,1-1.49.3-.69.07-1.31-.56-1.71-3.46-1.42-6.97-3.89-10.41-5.21-.7-.27-1.2-.16-1.7.43-1.65,2.94-4.28,5.82-5.84,8.75-.4.75-.43.95.02,1.69,2.68,3.68,5.48,7.29,8.16,10.98.42.58,1.56,1.91,1.55,2.55,0,.16-.09.39-.12.57-.57,3.09-1.71,6.24-2.34,9.33-.03.76.56,1.37,1.31,1.4h19.49c.69-.05,1.16-.47,1.24-1.16.25-2.27-.22-4.95.04-7.26.18-.83,1.35-1.28,1.98-1.8,3.08-2.58,2.87-5.9,2.79-9.61-1.07,1-2.54,1.49-3.99,1.03-3.98-1.49-7.88-3.77-11.83-5.25-.51-.19-.85-.33-1.43-.24l5.47,10.96c.32,1.35-1.05,2.18-2.12,1.35l-6.2-12.29h.01ZM35.27,12.31c-.32.07-.63.39-.82.64-1.25,2.23-3.25,4.42-4.43,6.64-.39.74-.47,1.39.3,1.92.29.2,2.49,1.18,2.8,1.23.6.1.93-.1,1.31-.54l4.53-6.88c.12-.63-.05-1.09-.54-1.48-.33-.27-1.9-1.3-2.25-1.44-.29-.12-.59-.15-.9-.09ZM42.04,16.44c-.52,0-.81.29-1.12.66-1.01,1.23-3.03,4.26-3.78,5.66-.37.7-.46,1.43.3,1.92.29.19,2.6,1.21,2.88,1.24.53.06.96-.18,1.27-.6,1.01-1.83,2.7-3.64,3.64-5.46.34-.65.39-1.2-.2-1.74-.34-.31-1.69-1.16-2.13-1.39-.26-.13-.56-.3-.86-.3h0Z"/><path class="cls-1" d="M23.26,22.86l6.2,12.29c1.07.84,2.44,0,2.12-1.35l-5.47-10.96c.58-.08.92.05,1.43.24,3.96,1.47,7.85,3.75,11.83,5.25,1.44.47,2.91-.03,3.99-1.03.08,3.71.29,7.03-2.79,9.61-.63.52-1.8.97-1.98,1.8-.26,2.31.22,4.99-.04,7.26-.08.69-.56,1.11-1.24,1.16h-19.49c-.75-.03-1.34-.63-1.31-1.4.63-3.09,1.78-6.25,2.34-9.33.03-.17.12-.41.12-.57.01-.64-1.13-1.97-1.55-2.55-2.67-3.69-5.47-7.3-8.16-10.98-.44-.74-.41-.94-.02-1.69,1.55-2.93,4.18-5.82,5.84-8.75.49-.58,1-.69,1.7-.43,3.44,1.32,6.95,3.79,10.41,5.21.63.39.86,1.01.56,1.71-.1.23-.83,1.32-1,1.49-.26.26-.67.4-1.03.43-2.59.23-5.72-.31-8.24,0-1.43.17-1.54,2.42.26,2.58,1.8.16,3.74-.14,5.53.01h-.01Z"/><path class="cls-1" d="M21.9,3.2c.91.68,2.41,1.31,3.22,2.06.44.41.48.96.32,1.52l-3.07,4.57-5.18-2.61,3.43-5.13.69-.41h.6-.01Z"/><path class="cls-1" d="M35.27,12.31c.31-.06.61-.03.9.09.35.14,1.92,1.17,2.25,1.44.48.39.66.85.54,1.48l-4.53,6.88c-.38.44-.71.64-1.31.54-.32-.05-2.51-1.03-2.8-1.23-.77-.53-.69-1.18-.3-1.92,1.18-2.23,3.18-4.41,4.43-6.64.19-.25.5-.57.82-.64Z"/><path class="cls-1" d="M42.04,16.44c.3,0,.6.16.86.3.44.23,1.79,1.07,2.13,1.39.59.55.54,1.09.2,1.74-.94,1.82-2.63,3.63-3.64,5.46-.31.42-.74.66-1.27.6-.28-.03-2.59-1.05-2.88-1.24-.76-.49-.67-1.22-.3-1.92.75-1.4,2.77-4.43,3.78-5.66.31-.38.6-.66,1.12-.66h0Z"/><path class="cls-1" d="M29.96,15.12l-5.23-2.62c1.03-1.53,1.95-3.18,3.14-4.57.36-.19.73-.24,1.13-.13.27.08,2.91,1.77,3.15,2,.32.32.45.8.38,1.24l-2.58,4.08h.01Z"/></g></svg>