<?xml version="1.0" encoding="UTF-8"?>
<svg id="Ebene_1" xmlns="http://www.w3.org/2000/svg" version="1.1" viewBox="0 0 53.79 51.45">
  <!-- Generator: Adobe Illustrator 30.0.0, SVG Export Plug-In . SVG Version: 2.1.1 Build 123)  -->
  <defs>
    <style>
      .st0 {
        fill: #6bff6b;
      }
    </style>
  </defs>
  <circle class="st0" cx="17.94" cy="21.45" r="5.17" transform="translate(-4.45 4.69) rotate(-13.28)"/>
  <circle class="st0" cx="35.95" cy="21.45" r="5.17"/>
  <path class="st0" d="M39.5,30.37c-.65,1.17-1.3,2.37-2.23,3.34-.77.81-1.67,1.19-2.63,1.71-1.36.75-3.29,2.33-4.51,2.57-1.55.3-3.48-.23-4.99-.53-1.39-.28-3.11-.41-4.39-1.03-.9-.43-1.5-1.32-2.05-2.12-.71-1.04-1.4-2.09-2.25-3.02-1.25-1.37-3.27.67-2.03,2.04h0c1.78,1.95,2.74,4.69,5.32,5.8,1.56.67,3.42.89,5.08,1.21,1.75.33,3.66.71,5.45.53,2.12-.21,4.03-1.96,5.83-2.96,1.17-.64,2.27-1.17,3.2-2.16,1.09-1.16,1.9-2.54,2.68-3.92.9-1.62-1.58-3.06-2.48-1.44Z"/>
  <path class="st0" d="M26.94,0C12.73,0,1.22,11.52,1.22,25.73s11.52,25.72,25.73,25.72,25.72-11.52,25.72-25.72S41.15,0,26.94,0ZM26.95,48.29c-12.42,0-22.5-10.07-22.5-22.5S14.52,3.29,26.95,3.29s22.5,10.07,22.5,22.5-10.07,22.5-22.5,22.5Z"/>
</svg>