<?xml version="1.0" encoding="UTF-8"?><svg id="Ebene_1" xmlns="http://www.w3.org/2000/svg" viewBox="0 0 53.79 51.45"><defs><style>.cls-1{fill:#6bff6b;}</style></defs><path class="cls-1" d="M26.9,2.21C13.91,2.21,3.38,12.74,3.38,25.73s10.53,23.52,23.52,23.52,23.52-10.53,23.52-23.52S39.89,2.21,26.9,2.21ZM36.31,15.79c2.98,0,5.4,2.42,5.4,5.4s-2.42,5.4-5.4,5.4-5.4-2.42-5.4-5.4,2.42-5.4,5.4-5.4ZM17.48,15.79c2.98,0,5.4,2.42,5.4,5.4s-2.42,5.4-5.4,5.4-5.4-2.42-5.4-5.4,2.42-5.4,5.4-5.4ZM42.61,32.03c-.81,1.44-1.66,2.89-2.8,4.1-.98,1.04-2.13,1.59-3.35,2.26-1.89,1.04-3.88,2.87-6.1,3.09-1.87.19-3.87-.2-5.7-.55-1.73-.33-3.68-.56-5.31-1.26-2.7-1.16-3.7-4.02-5.56-6.06h.01c-1.3-1.43.81-3.56,2.12-2.13.89.97,1.61,2.07,2.35,3.16.57.84,1.2,1.77,2.14,2.22,1.34.65,3.14.79,4.59,1.08,1.58.31,3.6.86,5.22.55,1.28-.25,3.3-1.91,4.72-2.69,1-.55,1.94-.94,2.75-1.79.97-1.01,1.65-2.27,2.33-3.49.94-1.69,3.53-.18,2.59,1.51Z"/></svg>