<?xml version="1.0" encoding="UTF-8"?><svg id="Ebene_1" xmlns="http://www.w3.org/2000/svg" viewBox="0 0 53.79 51.45"><defs><style>.cls-1{fill:#6bff6b;}.cls-2{fill:#fff;}</style></defs><circle class="cls-1" cx="26.9" cy="25.73" r="23.52"/><circle class="cls-2" cx="17.48" cy="21.19" r="5.4"/><circle class="cls-2" cx="36.31" cy="21.19" r="5.4"/><path class="cls-2" d="M13.79,33.61c1.86,2.04,2.86,4.9,5.56,6.06,1.63.7,3.58.93,5.31,1.26,1.83.35,3.83.74,5.7.55,2.22-.22,4.21-2.05,6.1-3.09,1.22-.67,2.37-1.22,3.35-2.26,1.14-1.21,1.99-2.66,2.8-4.1.94-1.69-1.65-3.2-2.59-1.51-.68,1.22-1.36,2.48-2.33,3.49-.81.85-1.75,1.24-2.75,1.79-1.42.78-3.44,2.44-4.72,2.69-1.62.31-3.64-.24-5.22-.55-1.45-.29-3.25-.43-4.59-1.08-.94-.45-1.57-1.38-2.14-2.22-.74-1.09-1.46-2.19-2.35-3.16-1.31-1.43-3.42.7-2.12,2.12h0Z"/></svg>