<?xml version="1.0" encoding="UTF-8"?><svg id="Ebene_1" xmlns="http://www.w3.org/2000/svg" viewBox="0 0 53.79 51.45"><defs><style>.cls-1{fill:#6bff6b;}</style></defs><path class="cls-1" d="M26.9,0C12.69,0,1.17,11.52,1.17,25.73s11.52,25.72,25.73,25.72,25.72-11.52,25.72-25.72S41.1,0,26.9,0ZM35.27,12.31c.31-.06.61-.03.9.09.35.14,1.92,1.17,2.25,1.44.49.39.66.85.54,1.48l-4.53,6.88c-.19.22-.37.38-.57.47-.1.05-.21.08-.33.09-.12.01-.25,0-.4-.02-.32-.05-2.51-1.03-2.8-1.23-.39-.27-.56-.56-.59-.88-.01-.16,0-.33.06-.5.05-.17.13-.35.23-.54,1.18-2.23,3.18-4.41,4.43-6.64.19-.25.5-.57.82-.64ZM27.87,7.93c.07-.04.15-.07.22-.09.29-.11.6-.13.92-.04.28.08,2.91,1.77,3.15,2,.32.32.45.8.38,1.24l-2.58,4.08h0s-.01,0-.01,0h-.01,0s-5.22-2.62-5.22-2.62c1.03-1.53,1.95-3.18,3.14-4.57ZM20.62,3.61l.69-.41h.59c.91.68,2.41,1.31,3.22,2.06.44.41.48.96.32,1.52l-3.07,4.57-5.18-2.61,3.43-5.13ZM40.57,36.91c-.63.52-1.8.97-1.98,1.8-.26,2.31.22,4.99-.04,7.26-.08.69-.56,1.11-1.24,1.16h-19.5c-.75-.03-1.34-.64-1.31-1.4.63-3.09,1.77-6.24,2.34-9.33.03-.18.12-.41.12-.57,0-.64-1.13-1.97-1.55-2.55-2.68-3.69-5.48-7.3-8.16-10.98-.45-.74-.42-.94-.02-1.69.75-1.41,1.75-2.81,2.77-4.21.32-.44.64-.88.95-1.31.77-1.07,1.51-2.15,2.12-3.23.45-.53.9-.65,1.49-.48.07.02.14.03.22.05,3.44,1.32,6.95,3.79,10.41,5.21.63.39.86,1.01.56,1.71-.1.23-.83,1.32-1,1.49-.26.26-.67.4-1.03.43-.05,0-.11,0-.16,0-2.48.2-5.42-.27-7.86-.03-.07,0-.14,0-.21.02-.43.05-.72.3-.9.61-.32.57-.19,1.38.49,1.76.19.1.4.18.67.21.45.04.9.05,1.36.05.92,0,1.87-.07,2.8-.08.46,0,.92,0,1.37.04h-.01l6.2,12.29c.13.1.27.18.41.24.97.37,1.98-.41,1.7-1.59l-5.47-10.96c.35-.05.61-.02.88.05.18.05.35.11.56.19,3.96,1.47,7.85,3.75,11.83,5.25.12.04.23.06.35.09,1.33.28,2.65-.2,3.63-1.12,0,0,0,0,0,0,0,0,0,0,0,0,.08,3.71.29,7.03-2.79,9.61ZM45.23,19.87c-.94,1.82-2.63,3.63-3.64,5.46-.31.42-.74.66-1.27.6-.28-.03-2.59-1.05-2.88-1.24-.38-.25-.55-.56-.57-.89-.03-.33.09-.69.27-1.04.75-1.4,2.77-4.43,3.78-5.66.31-.37.6-.66,1.12-.66h0c.3-.01.6.16.86.29.44.23,1.79,1.08,2.13,1.39.3.27.43.55.45.84.02.29-.08.58-.25.91Z"/><rect class="cls-1" x="29.96" y="15.11" width="0" height="0" transform="translate(3.1 35.24) rotate(-63.62)"/></svg>